<mxfile host="Electron" modified="2022-05-24T09:46:25.802Z" agent="5.0 (Windows NT 10.0; Win64; x64) AppleWebKit/537.36 (KHTML, like Gecko) draw.io/18.0.6 Chrome/100.0.4896.143 Electron/18.2.3 Safari/537.36" etag="b2FsBlOjEM4s38RYMb7W" compressed="false" version="18.0.6" type="device">
  <diagram id="1IEk_Nb3fTFsxIXIZDjR" name="Page-1">
    <mxGraphModel dx="2622" dy="1385" grid="1" gridSize="10" guides="1" tooltips="1" connect="1" arrows="1" fold="1" page="0" pageScale="1" pageWidth="850" pageHeight="1100" math="1" shadow="0">
      <root>
        <mxCell id="0" />
        <mxCell id="1" parent="0" />
        <mxCell id="aK4557C4-1yOz1idRsq2-1" value="" style="ellipse;whiteSpace=wrap;html=1;aspect=fixed;fillColor=#000000;fontStyle=1" parent="1" vertex="1">
          <mxGeometry x="-710" y="235" width="10" height="10" as="geometry" />
        </mxCell>
        <mxCell id="aK4557C4-1yOz1idRsq2-4" value="" style="endArrow=classic;html=1;rounded=0;fontStyle=1" parent="1" source="aK4557C4-1yOz1idRsq2-1" target="aK4557C4-1yOz1idRsq2-5" edge="1">
          <mxGeometry width="50" height="50" relative="1" as="geometry">
            <mxPoint x="-60" y="550" as="sourcePoint" />
            <mxPoint x="-250" y="230" as="targetPoint" />
          </mxGeometry>
        </mxCell>
        <mxCell id="aK4557C4-1yOz1idRsq2-5" value="&lt;span&gt;Listening&lt;/span&gt;" style="ellipse;whiteSpace=wrap;html=1;fillColor=#E9E6FF;fontStyle=1" parent="1" vertex="1">
          <mxGeometry x="-570" y="220" width="70" height="40" as="geometry" />
        </mxCell>
        <mxCell id="aK4557C4-1yOz1idRsq2-6" value="" style="endArrow=classic;html=1;rounded=0;fontStyle=1" parent="1" source="aK4557C4-1yOz1idRsq2-5" target="aK4557C4-1yOz1idRsq2-8" edge="1">
          <mxGeometry relative="1" as="geometry">
            <mxPoint x="-330" y="310" as="sourcePoint" />
            <mxPoint x="-230" y="310" as="targetPoint" />
            <Array as="points">
              <mxPoint x="-550" y="150" />
            </Array>
          </mxGeometry>
        </mxCell>
        <mxCell id="aK4557C4-1yOz1idRsq2-7" value="&lt;font style=&quot;font-size: 12px;&quot;&gt;NewSample(`epsilon_T`) [`epsilon_T` &amp;gt; A_THRESHOLD]&lt;/font&gt;" style="edgeLabel;resizable=0;html=1;align=center;verticalAlign=middle;fillColor=#FFFFFF;fontSize=8;fontStyle=1" parent="aK4557C4-1yOz1idRsq2-6" connectable="0" vertex="1">
          <mxGeometry relative="1" as="geometry">
            <mxPoint x="-51" y="10" as="offset" />
          </mxGeometry>
        </mxCell>
        <mxCell id="aK4557C4-1yOz1idRsq2-8" value="&lt;span&gt;Ensuring Anomaly&lt;/span&gt;" style="ellipse;whiteSpace=wrap;html=1;fillColor=#E9E6FF;fontStyle=1" parent="1" vertex="1">
          <mxGeometry x="-560" y="90" width="70" height="40" as="geometry" />
        </mxCell>
        <mxCell id="aK4557C4-1yOz1idRsq2-9" value="&lt;span&gt;Gathering Data&lt;/span&gt;" style="ellipse;whiteSpace=wrap;html=1;fillColor=#5F0F40;fontColor=#FFFFFF;fontStyle=1" parent="1" vertex="1">
          <mxGeometry x="-360" y="20" width="70" height="40" as="geometry" />
        </mxCell>
        <mxCell id="aK4557C4-1yOz1idRsq2-10" value="&lt;span&gt;Calibrating&lt;/span&gt;" style="ellipse;whiteSpace=wrap;html=1;fillColor=#5F0F40;fontColor=#FFFFFF;fontStyle=1" parent="1" vertex="1">
          <mxGeometry x="-120" y="70" width="70" height="40" as="geometry" />
        </mxCell>
        <mxCell id="aK4557C4-1yOz1idRsq2-11" value="&lt;font style=&quot;font-size: 14px;&quot;&gt;Cooling Down&lt;/font&gt;" style="ellipse;whiteSpace=wrap;html=1;fillColor=#FFFFFF;fontStyle=1" parent="1" vertex="1">
          <mxGeometry x="-335" y="180" width="70" height="40" as="geometry" />
        </mxCell>
        <mxCell id="aK4557C4-1yOz1idRsq2-12" value="" style="endArrow=classic;html=1;rounded=0;fontStyle=1" parent="1" source="aK4557C4-1yOz1idRsq2-5" target="aK4557C4-1yOz1idRsq2-5" edge="1">
          <mxGeometry relative="1" as="geometry">
            <mxPoint x="-475" y="230" as="sourcePoint" />
            <mxPoint x="-475" y="170" as="targetPoint" />
            <Array as="points">
              <mxPoint x="-500" y="280" />
            </Array>
          </mxGeometry>
        </mxCell>
        <mxCell id="aK4557C4-1yOz1idRsq2-13" value="&lt;font style=&quot;font-size: 12px;&quot;&gt;NewSample(`epsilon_T`) [`epsilon_T` &amp;lt;= A_THRESHOLD]&lt;/font&gt;" style="edgeLabel;resizable=0;html=1;align=center;verticalAlign=middle;fillColor=#FFFFFF;fontSize=8;fontStyle=1" parent="aK4557C4-1yOz1idRsq2-12" connectable="0" vertex="1">
          <mxGeometry relative="1" as="geometry">
            <mxPoint y="10" as="offset" />
          </mxGeometry>
        </mxCell>
        <mxCell id="aK4557C4-1yOz1idRsq2-14" value="" style="endArrow=classic;html=1;rounded=0;fontStyle=1" parent="1" source="aK4557C4-1yOz1idRsq2-8" target="aK4557C4-1yOz1idRsq2-9" edge="1">
          <mxGeometry relative="1" as="geometry">
            <mxPoint x="-415" y="190" as="sourcePoint" />
            <mxPoint x="-415" y="130" as="targetPoint" />
            <Array as="points">
              <mxPoint x="-400" y="50" />
            </Array>
          </mxGeometry>
        </mxCell>
        <mxCell id="aK4557C4-1yOz1idRsq2-15" value="&lt;font style=&quot;font-size: 12px;&quot;&gt;NewSample(`epsilon_T`) [After(ES_TIMER) &amp;amp; `epsilon_T` &amp;gt; A_THRESHOLD]&lt;/font&gt;" style="edgeLabel;resizable=0;html=1;align=center;verticalAlign=middle;fillColor=#FFFFFF;fontSize=8;fontStyle=1" parent="aK4557C4-1yOz1idRsq2-14" connectable="0" vertex="1">
          <mxGeometry relative="1" as="geometry">
            <mxPoint x="-39" y="5" as="offset" />
          </mxGeometry>
        </mxCell>
        <mxCell id="aK4557C4-1yOz1idRsq2-16" value="" style="endArrow=classic;html=1;rounded=0;fontStyle=1" parent="1" source="aK4557C4-1yOz1idRsq2-8" target="aK4557C4-1yOz1idRsq2-5" edge="1">
          <mxGeometry relative="1" as="geometry">
            <mxPoint x="-433.62600408263734" y="193.0672690157843" as="sourcePoint" />
            <mxPoint x="-433.62600408263734" y="126.93273098421571" as="targetPoint" />
            <Array as="points">
              <mxPoint x="-390" y="150" />
            </Array>
          </mxGeometry>
        </mxCell>
        <mxCell id="aK4557C4-1yOz1idRsq2-17" value="&lt;font style=&quot;font-size: 12px;&quot;&gt;NewSample(`epsilon_T`) [`epsilon_T` &amp;lt;= A_THRESHOLD]&lt;/font&gt;" style="edgeLabel;resizable=0;html=1;align=center;verticalAlign=middle;fillColor=#FFFFFF;fontSize=8;fontStyle=1" parent="aK4557C4-1yOz1idRsq2-16" connectable="0" vertex="1">
          <mxGeometry relative="1" as="geometry">
            <mxPoint x="10" y="-10" as="offset" />
          </mxGeometry>
        </mxCell>
        <mxCell id="aK4557C4-1yOz1idRsq2-18" value="" style="endArrow=classic;html=1;rounded=0;fontStyle=1" parent="1" source="aK4557C4-1yOz1idRsq2-9" target="aK4557C4-1yOz1idRsq2-10" edge="1">
          <mxGeometry relative="1" as="geometry">
            <mxPoint x="-405.3847605235819" y="90.76952104716383" as="sourcePoint" />
            <mxPoint x="-309.6016593068882" y="53.008839939729455" as="targetPoint" />
            <Array as="points">
              <mxPoint x="-260" y="50" />
            </Array>
          </mxGeometry>
        </mxCell>
        <mxCell id="aK4557C4-1yOz1idRsq2-19" value="&lt;font style=&quot;font-size: 12px;&quot;&gt;NewSample(`epsilon_T`) [After(GT_TIMER)]&lt;/font&gt;" style="edgeLabel;resizable=0;html=1;align=center;verticalAlign=middle;fillColor=#FFFFFF;fontSize=10;fontStyle=1" parent="aK4557C4-1yOz1idRsq2-18" connectable="0" vertex="1">
          <mxGeometry relative="1" as="geometry">
            <mxPoint x="54" y="-13" as="offset" />
          </mxGeometry>
        </mxCell>
        <mxCell id="aK4557C4-1yOz1idRsq2-20" value="" style="endArrow=classic;html=1;rounded=0;fontStyle=1" parent="1" source="aK4557C4-1yOz1idRsq2-10" target="aK4557C4-1yOz1idRsq2-10" edge="1">
          <mxGeometry relative="1" as="geometry">
            <mxPoint x="-277.0013263276062" y="128.5695338177054" as="sourcePoint" />
            <mxPoint x="135.00000000000003" y="160" as="targetPoint" />
            <Array as="points">
              <mxPoint x="5.000000000000006" y="70" />
            </Array>
          </mxGeometry>
        </mxCell>
        <mxCell id="aK4557C4-1yOz1idRsq2-21" value="&lt;font style=&quot;font-size: 12px;&quot;&gt;NewSample(`epsilon_T`)&amp;nbsp; / success := calibrate&lt;/font&gt;" style="edgeLabel;resizable=0;html=1;align=center;verticalAlign=middle;fillColor=#FFFFFF;fontSize=10;fontStyle=1" parent="aK4557C4-1yOz1idRsq2-20" connectable="0" vertex="1">
          <mxGeometry relative="1" as="geometry">
            <mxPoint x="68" as="offset" />
          </mxGeometry>
        </mxCell>
        <mxCell id="aK4557C4-1yOz1idRsq2-24" value="" style="endArrow=classic;html=1;rounded=0;strokeColor=#000000;fontStyle=1" parent="1" source="aK4557C4-1yOz1idRsq2-10" target="lTEpGvthQUeUUi3ocv1R-1" edge="1">
          <mxGeometry relative="1" as="geometry">
            <mxPoint x="-98.99281955828474" y="97.78575604635046" as="sourcePoint" />
            <mxPoint x="-73.75079643189156" y="190.0127429102638" as="targetPoint" />
            <Array as="points" />
          </mxGeometry>
        </mxCell>
        <mxCell id="aK4557C4-1yOz1idRsq2-25" value="&lt;font style=&quot;font-size: 12px;&quot;&gt;[success]&lt;/font&gt;" style="edgeLabel;resizable=0;html=1;align=center;verticalAlign=middle;fillColor=#FFFFFF;fontSize=8;fontStyle=1" parent="aK4557C4-1yOz1idRsq2-24" connectable="0" vertex="1">
          <mxGeometry relative="1" as="geometry">
            <mxPoint x="8" y="-5" as="offset" />
          </mxGeometry>
        </mxCell>
        <mxCell id="aK4557C4-1yOz1idRsq2-26" value="" style="endArrow=classic;html=1;rounded=0;entryX=1;entryY=0.5;entryDx=0;entryDy=0;fontStyle=1" parent="1" source="aK4557C4-1yOz1idRsq2-11" target="aK4557C4-1yOz1idRsq2-5" edge="1">
          <mxGeometry relative="1" as="geometry">
            <mxPoint x="-281.2034484517774" y="55.19946946895732" as="sourcePoint" />
            <mxPoint x="-208.81578847784067" y="85.3441301674826" as="targetPoint" />
            <Array as="points" />
          </mxGeometry>
        </mxCell>
        <mxCell id="aK4557C4-1yOz1idRsq2-27" value="&lt;font style=&quot;font-size: 12px;&quot;&gt;NewSample(`epsilon_T`) [After(GD_TIMER)]&lt;/font&gt;" style="edgeLabel;resizable=0;html=1;align=center;verticalAlign=middle;fillColor=#FFFFFF;fontSize=8;fontStyle=1" parent="aK4557C4-1yOz1idRsq2-26" connectable="0" vertex="1">
          <mxGeometry relative="1" as="geometry">
            <mxPoint x="49" y="13" as="offset" />
          </mxGeometry>
        </mxCell>
        <mxCell id="aK4557C4-1yOz1idRsq2-30" value="&lt;h1&gt;SelfAdaptationManager States&lt;/h1&gt;&lt;p&gt;This diagrams shows the main states the SelfAdaptationManager goes through in the self adaptation process.&lt;br&gt;`epsilon_T` denotes the difference between the output of the Kalman filter and the sensor measurement.&lt;br&gt;&lt;/p&gt;" style="text;html=1;strokeColor=none;fillColor=none;spacing=5;spacingTop=-20;whiteSpace=wrap;overflow=hidden;rounded=0;" parent="1" vertex="1">
          <mxGeometry x="-600" y="-70" width="600" height="90" as="geometry" />
        </mxCell>
        <mxCell id="lTEpGvthQUeUUi3ocv1R-1" value="&lt;span&gt;OptimizingController&lt;/span&gt;" style="ellipse;whiteSpace=wrap;html=1;fillColor=#9A031E;fontColor=#FFFFFF;fontStyle=1" parent="1" vertex="1">
          <mxGeometry x="-120" y="160" width="130" height="40" as="geometry" />
        </mxCell>
        <mxCell id="lTEpGvthQUeUUi3ocv1R-2" value="" style="endArrow=classic;html=1;rounded=0;strokeColor=#000000;fontStyle=1" parent="1" source="lTEpGvthQUeUUi3ocv1R-1" target="lTEpGvthQUeUUi3ocv1R-4" edge="1">
          <mxGeometry relative="1" as="geometry">
            <mxPoint x="-98.99281955828474" y="97.78575604635046" as="sourcePoint" />
            <mxPoint x="-73.75079643189156" y="190.0127429102638" as="targetPoint" />
            <Array as="points" />
          </mxGeometry>
        </mxCell>
        <mxCell id="lTEpGvthQUeUUi3ocv1R-3" value="" style="edgeLabel;resizable=0;html=1;align=center;verticalAlign=middle;fillColor=#FFFFFF;fontSize=8;fontStyle=1" parent="lTEpGvthQUeUUi3ocv1R-2" connectable="0" vertex="1">
          <mxGeometry relative="1" as="geometry">
            <mxPoint x="8" y="-5" as="offset" />
          </mxGeometry>
        </mxCell>
        <mxCell id="lTEpGvthQUeUUi3ocv1R-4" value="&lt;span&gt;UpdatingController&lt;/span&gt;" style="ellipse;whiteSpace=wrap;html=1;fillColor=#CB793A;fontColor=#FFFFFF;fontStyle=1" parent="1" vertex="1">
          <mxGeometry x="-120" y="230" width="130" height="40" as="geometry" />
        </mxCell>
        <mxCell id="lTEpGvthQUeUUi3ocv1R-5" value="" style="endArrow=classic;html=1;rounded=0;strokeColor=#000000;fontStyle=1" parent="1" source="lTEpGvthQUeUUi3ocv1R-4" target="aK4557C4-1yOz1idRsq2-11" edge="1">
          <mxGeometry relative="1" as="geometry">
            <mxPoint x="-98.99281955828474" y="97.78575604635046" as="sourcePoint" />
            <mxPoint x="-73.75079643189156" y="190.0127429102638" as="targetPoint" />
            <Array as="points" />
          </mxGeometry>
        </mxCell>
        <mxCell id="lTEpGvthQUeUUi3ocv1R-6" value="" style="edgeLabel;resizable=0;html=1;align=center;verticalAlign=middle;fillColor=#FFFFFF;fontSize=8;fontStyle=1" parent="lTEpGvthQUeUUi3ocv1R-5" connectable="0" vertex="1">
          <mxGeometry relative="1" as="geometry">
            <mxPoint x="8" y="-5" as="offset" />
          </mxGeometry>
        </mxCell>
        <mxCell id="lTEpGvthQUeUUi3ocv1R-7" value="" style="rounded=1;whiteSpace=wrap;html=1;fontSize=8;fillColor=#f5f5f5;fontColor=#333333;strokeColor=#666666;fontStyle=1" parent="1" vertex="1">
          <mxGeometry x="-870" y="24.830000000000013" width="180" height="70" as="geometry" />
        </mxCell>
        <mxCell id="lTEpGvthQUeUUi3ocv1R-8" value="Legend:" style="text;html=1;strokeColor=none;fillColor=none;align=left;verticalAlign=middle;whiteSpace=wrap;rounded=0;fontStyle=1;spacing=6;" parent="1" vertex="1">
          <mxGeometry x="-870" y="24.830000000000013" width="80" height="30" as="geometry" />
        </mxCell>
        <mxCell id="lTEpGvthQUeUUi3ocv1R-16" value="State" style="ellipse;whiteSpace=wrap;html=1;fillColor=#FFFFFF;fontStyle=1" parent="1" vertex="1">
          <mxGeometry x="-860" y="54.83000000000001" width="50" height="30" as="geometry" />
        </mxCell>
        <mxCell id="lTEpGvthQUeUUi3ocv1R-17" value="event [guard] / action" style="endArrow=classic;html=1;rounded=0;strokeColor=#000000;exitX=1;exitY=0.5;exitDx=0;exitDy=0;fontStyle=1" parent="1" source="lTEpGvthQUeUUi3ocv1R-16" edge="1">
          <mxGeometry x="-0.1308" y="15" relative="1" as="geometry">
            <mxPoint x="-790" y="69.53999999999999" as="sourcePoint" />
            <mxPoint x="-700" y="69.83000000000001" as="targetPoint" />
            <Array as="points" />
            <mxPoint as="offset" />
          </mxGeometry>
        </mxCell>
        <mxCell id="lTEpGvthQUeUUi3ocv1R-18" value="" style="edgeLabel;resizable=0;html=1;align=center;verticalAlign=middle;fillColor=#FFFFFF;fontSize=8;fontStyle=1" parent="lTEpGvthQUeUUi3ocv1R-17" connectable="0" vertex="1">
          <mxGeometry relative="1" as="geometry">
            <mxPoint x="8" y="-5" as="offset" />
          </mxGeometry>
        </mxCell>
      </root>
    </mxGraphModel>
  </diagram>
</mxfile>
